<svg width="64" height="36" viewBox="0 0 64 36" fill="none" xmlns="http://www.w3.org/2000/svg">
<path d="M49.7314 1.30907L64 17.5661L61.5588 19.7494L48.4387 4.80098L41.3818 11.9255L47.4301 18.1192L48.5667 19.2831L32.008 36L30.855 34.8525L16.3826 20.4475L15.2134 19.2835L22.4579 11.9693L15.5613 5.00676L2.44127 19.9552L0 17.7719L14.2686 1.51485L15.4176 0.205786L16.6422 1.44251L24.7638 9.64179L32.0084 2.32795L33.1614 3.5084L39.0921 9.58109L47.3579 1.23672L48.5826 0L49.7314 1.30907ZM19.8419 19.2663L31.9921 31.3598L43.9701 19.2671L31.9913 7.00074L19.8419 19.2663Z" fill="black"/>
</svg>
