<svg width="43" height="42" viewBox="0 0 43 42" fill="none" xmlns="http://www.w3.org/2000/svg">
<path d="M39.4166 14.6402V7.869C39.4166 3.52373 35.8929 0 31.5476 0H11.4524C7.10709 0 3.58336 3.52373 3.58336 7.869V14.6402C1.49559 15.378 0 17.3675 0 19.7084V32.0404C0 34.1354 1.698 35.8334 3.79299 35.8334H5.375V39.4167C5.375 40.4062 6.17713 41.2084 7.16664 41.2084C8.15614 41.2084 8.95828 40.4062 8.95828 39.4167V35.8334H34.0416V39.4167C34.0416 40.4062 34.8438 41.2084 35.8333 41.2084C36.8228 41.2084 37.625 40.4062 37.625 39.4167V35.8334H39.207C41.302 35.8334 43 34.1354 43 32.0404V19.7084C43 17.3675 41.5044 15.378 39.4166 14.6402ZM10.75 21.5001H32.25V25.0834H10.75V21.5001ZM7.16664 7.86908C7.16664 5.50282 9.08602 3.58344 11.4523 3.58344H31.5476C33.9139 3.58344 35.8333 5.50282 35.8333 7.86908V14.6391C35.8223 14.6429 35.8115 14.6474 35.8005 14.6513C35.7768 14.6599 35.7532 14.669 35.7296 14.6779C35.6772 14.6977 35.6252 14.7182 35.5735 14.7395C35.5486 14.7498 35.5237 14.7602 35.4989 14.7708C35.4448 14.7942 35.3913 14.8185 35.338 14.8436C35.319 14.8526 35.2996 14.8611 35.2806 14.8704C35.2095 14.9048 35.1394 14.9407 35.0701 14.9781C35.0562 14.9857 35.0426 14.9937 35.0289 15.0014C34.9734 15.032 34.9184 15.0636 34.864 15.0961C34.8417 15.1095 34.8195 15.1233 34.7974 15.1371C34.7508 15.166 34.7047 15.1955 34.6591 15.2258C34.6373 15.2401 34.6156 15.2545 34.5941 15.2692C34.5421 15.3047 34.4909 15.3413 34.4401 15.3786C34.4274 15.388 34.4144 15.397 34.4017 15.4065C34.3391 15.4535 34.2776 15.5018 34.2173 15.5515C34.2012 15.5647 34.1856 15.5783 34.1696 15.5918C34.125 15.6292 34.081 15.6672 34.0377 15.706C34.0179 15.7238 33.9983 15.7418 33.9787 15.7598C33.9384 15.7971 33.8987 15.835 33.8596 15.8735C33.8418 15.8909 33.824 15.9082 33.8064 15.9258C33.7557 15.977 33.7058 16.0292 33.6571 16.0824C33.6529 16.087 33.6484 16.0914 33.6442 16.096C33.5917 16.154 33.5406 16.2133 33.4905 16.2735C33.4755 16.2915 33.461 16.31 33.4463 16.3282C33.4111 16.3717 33.3765 16.4156 33.3426 16.4602C33.3264 16.4815 33.3104 16.5029 33.2945 16.5245C33.261 16.57 33.2283 16.6161 33.1962 16.6628C33.1832 16.6816 33.1699 16.7002 33.1571 16.7193C33.1134 16.7844 33.0709 16.8504 33.03 16.9176C33.0248 16.9261 33.0201 16.9349 33.0149 16.9435C32.9795 17.0025 32.9451 17.0622 32.912 17.1226C32.8997 17.1451 32.8879 17.1677 32.8759 17.1903C32.8501 17.2389 32.8249 17.2878 32.8005 17.3373C32.7887 17.3614 32.7768 17.3855 32.7653 17.4098C32.7397 17.4639 32.7151 17.5186 32.6913 17.5737C32.6834 17.592 32.675 17.61 32.6672 17.6284C32.6365 17.7015 32.6074 17.7754 32.5799 17.8501C32.5737 17.867 32.5681 17.8841 32.5621 17.901C32.5602 17.9063 32.5584 17.9117 32.5565 17.917H10.4433C10.4414 17.9118 10.4397 17.9066 10.4378 17.9014C10.4317 17.8843 10.4262 17.8669 10.4199 17.85C10.3923 17.7753 10.3632 17.7015 10.3325 17.6284C10.3248 17.6101 10.3165 17.5921 10.3086 17.5739C10.2846 17.5187 10.26 17.464 10.2343 17.4097C10.2228 17.3854 10.2111 17.3614 10.1992 17.3374C10.1749 17.2878 10.1497 17.2388 10.1238 17.1902C10.1119 17.1677 10.1 17.1451 10.0878 17.1227C10.0545 17.0623 10.0202 17.0025 9.98473 16.9434C9.97961 16.9349 9.97482 16.9261 9.96962 16.9176C9.92872 16.8505 9.88622 16.7844 9.84255 16.7193C9.82978 16.7002 9.81651 16.6816 9.8035 16.6628C9.77141 16.6161 9.73866 16.5699 9.70515 16.5244C9.68928 16.5029 9.67332 16.4815 9.65711 16.4603C9.62327 16.4157 9.58866 16.3718 9.55347 16.3283C9.53861 16.31 9.52408 16.2915 9.50905 16.2734C9.45899 16.2133 9.40801 16.154 9.35544 16.096C9.35124 16.0914 9.34679 16.087 9.34259 16.0824C9.29388 16.0292 9.24408 15.9771 9.19335 15.9259C9.1758 15.9082 9.15791 15.8909 9.1401 15.8735C9.10097 15.8351 9.06141 15.7972 9.0211 15.76C9.00153 15.7419 8.98188 15.7239 8.96206 15.7061C8.91872 15.6672 8.87471 15.6292 8.83012 15.5918C8.81424 15.5784 8.79862 15.5647 8.78258 15.5516C8.72211 15.502 8.66072 15.4535 8.59815 15.4066C8.58547 15.3971 8.57245 15.3881 8.55977 15.3788C8.50913 15.3414 8.45781 15.3049 8.40583 15.2694C8.38433 15.2547 8.36249 15.2403 8.34074 15.2259C8.29514 15.1956 8.24911 15.1661 8.20259 15.1373C8.18041 15.1236 8.15824 15.1098 8.1359 15.0964C8.08148 15.0638 8.02647 15.0322 7.97087 15.0015C7.9571 14.9939 7.94366 14.9858 7.92989 14.9784C7.86069 14.9409 7.79047 14.905 7.71942 14.8706C7.70036 14.8614 7.68104 14.8528 7.66189 14.8437C7.60873 14.8187 7.55523 14.7943 7.50115 14.7711C7.47637 14.7604 7.45143 14.75 7.42649 14.7398C7.37492 14.7184 7.32293 14.698 7.27053 14.6783C7.24684 14.6694 7.22333 14.6602 7.19948 14.6517C7.18847 14.6477 7.17772 14.6433 7.16672 14.6394L7.16664 7.86908ZM39.4166 32.0405C39.4166 32.1564 39.323 32.2501 39.207 32.2501H3.79299C3.677 32.2501 3.58336 32.1564 3.58336 32.0405V19.7084C3.58336 18.7181 4.38474 17.9167 5.375 17.9167C6.36526 17.9167 7.16664 18.7181 7.16664 19.7084V28.6667H35.8333V19.7084C35.8333 18.7181 36.6347 17.9167 37.6249 17.9167C38.6152 17.9167 39.4166 18.7181 39.4166 19.7084V32.0405H39.4166Z" fill="black"/>
</svg>
