<svg width="9" height="28" viewBox="0 0 9 28" fill="none" xmlns="http://www.w3.org/2000/svg">
<path d="M4.81494 26.2773L0.66748 16.0601C0.495931 15.6564 0.339518 15.2578 0.198242 14.8643C0.0670573 14.4606 0.00146484 14.0721 0.00146484 13.6987C0.00146484 13.3153 0.0670573 12.9268 0.198242 12.5332C0.339518 12.1296 0.495931 11.7259 0.66748 11.3223L4.81494 1.10498C4.95622 0.771973 5.16309 0.504557 5.43555 0.302734C5.7181 0.100911 6.02588 0 6.35889 0C6.92399 0 7.38314 0.176595 7.73633 0.529785C8.09961 0.882975 8.28125 1.31689 8.28125 1.83154C8.28125 2.104 8.2207 2.40674 8.09961 2.73975C7.97852 3.06266 7.85742 3.35026 7.73633 3.60254L3.271 14.6675V12.73L7.73633 23.7798C7.85742 24.0422 7.97852 24.3348 8.09961 24.6577C8.2207 24.9806 8.28125 25.2783 8.28125 25.5508C8.28125 26.0654 8.09961 26.4993 7.73633 26.8525C7.38314 27.2158 6.92399 27.3975 6.35889 27.3975C6.02588 27.3975 5.7181 27.2915 5.43555 27.0796C5.16309 26.8778 4.95622 26.6104 4.81494 26.2773Z" fill="white"/>
</svg>
