<svg width="64" height="64" viewBox="0 0 64 64" fill="none" xmlns="http://www.w3.org/2000/svg">
<path d="M31.9996 58.6666C28.6663 58.6666 25.5441 58.0333 22.6329 56.7666C19.7218 55.4999 17.1885 53.7888 15.0329 51.6333C12.8774 49.4777 11.1663 46.9444 9.89961 44.0333C8.63294 41.1222 7.99961 37.9999 7.99961 34.6666C7.99961 31.3333 8.63294 28.211 9.89961 25.2999C11.1663 22.3888 12.8774 19.8555 15.0329 17.6999C17.1885 15.5444 19.7218 13.8333 22.6329 12.5666C25.5441 11.2999 28.6663 10.6666 31.9996 10.6666C35.3329 10.6666 38.4552 11.2999 41.3663 12.5666C44.2774 13.8333 46.8107 15.5444 48.9663 17.6999C51.1218 19.8555 52.833 22.3888 54.0996 25.2999C55.3663 28.211 55.9996 31.3333 55.9996 34.6666C55.9996 37.9999 55.3663 41.1222 54.0996 44.0333C52.833 46.9444 51.1218 49.4777 48.9663 51.6333C46.8107 53.7888 44.2774 55.4999 41.3663 56.7666C38.4552 58.0333 35.3329 58.6666 31.9996 58.6666ZM39.4663 45.8666L43.1996 42.1333L34.6663 33.5999V21.3333H29.3329V35.7333L39.4663 45.8666ZM14.9329 6.2666L18.6663 9.99993L7.33294 21.3333L3.59961 17.5999L14.9329 6.2666ZM49.0663 6.2666L60.3996 17.5999L56.6663 21.3333L45.3329 9.99993L49.0663 6.2666ZM31.9996 53.3333C37.1996 53.3333 41.6107 51.5222 45.2329 47.8999C48.8552 44.2777 50.6663 39.8666 50.6663 34.6666C50.6663 29.4666 48.8552 25.0555 45.2329 21.4333C41.6107 17.811 37.1996 15.9999 31.9996 15.9999C26.7996 15.9999 22.3885 17.811 18.7663 21.4333C15.1441 25.0555 13.3329 29.4666 13.3329 34.6666C13.3329 39.8666 15.1441 44.2777 18.7663 47.8999C22.3885 51.5222 26.7996 53.3333 31.9996 53.3333Z" fill="white"/>
</svg>
